<mxfile host="app.diagrams.net" modified="2024-02-07T08:29:34.180Z" agent="Mozilla/5.0 (Windows NT 10.0; Win64; x64) AppleWebKit/537.36 (KHTML, like Gecko) Chrome/121.0.0.0 Safari/537.36" etag="hsd1f_TENMP0AWzSi3jc" version="23.1.0" type="device" pages="2">
  <diagram name="Projekt" id="tBqUPEltD3KnJWZq26Ns">
    <mxGraphModel dx="1050" dy="617" grid="1" gridSize="10" guides="1" tooltips="1" connect="1" arrows="1" fold="1" page="1" pageScale="1" pageWidth="827" pageHeight="1169" math="0" shadow="0">
      <root>
        <mxCell id="0" />
        <mxCell id="1" parent="0" />
        <mxCell id="GG5JeXf6VGito8hK17r1-1" value="participants" style="shape=table;startSize=30;container=1;collapsible=1;childLayout=tableLayout;fixedRows=1;rowLines=0;fontStyle=1;align=center;resizeLast=1;html=1;" vertex="1" parent="1">
          <mxGeometry x="324" y="420" width="180" height="120" as="geometry" />
        </mxCell>
        <mxCell id="GG5JeXf6VGito8hK17r1-2" value="" style="shape=tableRow;horizontal=0;startSize=0;swimlaneHead=0;swimlaneBody=0;fillColor=none;collapsible=0;dropTarget=0;points=[[0,0.5],[1,0.5]];portConstraint=eastwest;top=0;left=0;right=0;bottom=1;" vertex="1" parent="GG5JeXf6VGito8hK17r1-1">
          <mxGeometry y="30" width="180" height="30" as="geometry" />
        </mxCell>
        <mxCell id="GG5JeXf6VGito8hK17r1-3" value="PK" style="shape=partialRectangle;connectable=0;fillColor=none;top=0;left=0;bottom=0;right=0;fontStyle=1;overflow=hidden;whiteSpace=wrap;html=1;" vertex="1" parent="GG5JeXf6VGito8hK17r1-2">
          <mxGeometry width="30" height="30" as="geometry">
            <mxRectangle width="30" height="30" as="alternateBounds" />
          </mxGeometry>
        </mxCell>
        <mxCell id="GG5JeXf6VGito8hK17r1-4" value="UniqueID" style="shape=partialRectangle;connectable=0;fillColor=none;top=0;left=0;bottom=0;right=0;align=left;spacingLeft=6;fontStyle=5;overflow=hidden;whiteSpace=wrap;html=1;" vertex="1" parent="GG5JeXf6VGito8hK17r1-2">
          <mxGeometry x="30" width="150" height="30" as="geometry">
            <mxRectangle width="150" height="30" as="alternateBounds" />
          </mxGeometry>
        </mxCell>
        <mxCell id="GG5JeXf6VGito8hK17r1-5" value="" style="shape=tableRow;horizontal=0;startSize=0;swimlaneHead=0;swimlaneBody=0;fillColor=none;collapsible=0;dropTarget=0;points=[[0,0.5],[1,0.5]];portConstraint=eastwest;top=0;left=0;right=0;bottom=0;" vertex="1" parent="GG5JeXf6VGito8hK17r1-1">
          <mxGeometry y="60" width="180" height="30" as="geometry" />
        </mxCell>
        <mxCell id="GG5JeXf6VGito8hK17r1-6" value="FK" style="shape=partialRectangle;connectable=0;fillColor=none;top=0;left=0;bottom=0;right=0;editable=1;overflow=hidden;whiteSpace=wrap;html=1;" vertex="1" parent="GG5JeXf6VGito8hK17r1-5">
          <mxGeometry width="30" height="30" as="geometry">
            <mxRectangle width="30" height="30" as="alternateBounds" />
          </mxGeometry>
        </mxCell>
        <mxCell id="GG5JeXf6VGito8hK17r1-7" value="contact_id" style="shape=partialRectangle;connectable=0;fillColor=none;top=0;left=0;bottom=0;right=0;align=left;spacingLeft=6;overflow=hidden;whiteSpace=wrap;html=1;" vertex="1" parent="GG5JeXf6VGito8hK17r1-5">
          <mxGeometry x="30" width="150" height="30" as="geometry">
            <mxRectangle width="150" height="30" as="alternateBounds" />
          </mxGeometry>
        </mxCell>
        <mxCell id="GG5JeXf6VGito8hK17r1-8" value="" style="shape=tableRow;horizontal=0;startSize=0;swimlaneHead=0;swimlaneBody=0;fillColor=none;collapsible=0;dropTarget=0;points=[[0,0.5],[1,0.5]];portConstraint=eastwest;top=0;left=0;right=0;bottom=0;" vertex="1" parent="GG5JeXf6VGito8hK17r1-1">
          <mxGeometry y="90" width="180" height="30" as="geometry" />
        </mxCell>
        <mxCell id="GG5JeXf6VGito8hK17r1-9" value="FK" style="shape=partialRectangle;connectable=0;fillColor=none;top=0;left=0;bottom=0;right=0;editable=1;overflow=hidden;whiteSpace=wrap;html=1;" vertex="1" parent="GG5JeXf6VGito8hK17r1-8">
          <mxGeometry width="30" height="30" as="geometry">
            <mxRectangle width="30" height="30" as="alternateBounds" />
          </mxGeometry>
        </mxCell>
        <mxCell id="GG5JeXf6VGito8hK17r1-10" value="project_id" style="shape=partialRectangle;connectable=0;fillColor=none;top=0;left=0;bottom=0;right=0;align=left;spacingLeft=6;overflow=hidden;whiteSpace=wrap;html=1;" vertex="1" parent="GG5JeXf6VGito8hK17r1-8">
          <mxGeometry x="30" width="150" height="30" as="geometry">
            <mxRectangle width="150" height="30" as="alternateBounds" />
          </mxGeometry>
        </mxCell>
        <mxCell id="GG5JeXf6VGito8hK17r1-14" value="projects" style="shape=table;startSize=30;container=1;collapsible=1;childLayout=tableLayout;fixedRows=1;rowLines=0;fontStyle=1;align=center;resizeLast=1;html=1;" vertex="1" parent="1">
          <mxGeometry x="590" y="420" width="180" height="270" as="geometry">
            <mxRectangle x="520" y="440" width="70" height="30" as="alternateBounds" />
          </mxGeometry>
        </mxCell>
        <mxCell id="GG5JeXf6VGito8hK17r1-15" value="" style="shape=tableRow;horizontal=0;startSize=0;swimlaneHead=0;swimlaneBody=0;fillColor=none;collapsible=0;dropTarget=0;points=[[0,0.5],[1,0.5]];portConstraint=eastwest;top=0;left=0;right=0;bottom=1;" vertex="1" parent="GG5JeXf6VGito8hK17r1-14">
          <mxGeometry y="30" width="180" height="30" as="geometry" />
        </mxCell>
        <mxCell id="GG5JeXf6VGito8hK17r1-16" value="PK" style="shape=partialRectangle;connectable=0;fillColor=none;top=0;left=0;bottom=0;right=0;fontStyle=1;overflow=hidden;whiteSpace=wrap;html=1;" vertex="1" parent="GG5JeXf6VGito8hK17r1-15">
          <mxGeometry width="30" height="30" as="geometry">
            <mxRectangle width="30" height="30" as="alternateBounds" />
          </mxGeometry>
        </mxCell>
        <mxCell id="GG5JeXf6VGito8hK17r1-17" value="UniqueID" style="shape=partialRectangle;connectable=0;fillColor=none;top=0;left=0;bottom=0;right=0;align=left;spacingLeft=6;fontStyle=5;overflow=hidden;whiteSpace=wrap;html=1;" vertex="1" parent="GG5JeXf6VGito8hK17r1-15">
          <mxGeometry x="30" width="150" height="30" as="geometry">
            <mxRectangle width="150" height="30" as="alternateBounds" />
          </mxGeometry>
        </mxCell>
        <mxCell id="GG5JeXf6VGito8hK17r1-119" value="" style="shape=tableRow;horizontal=0;startSize=0;swimlaneHead=0;swimlaneBody=0;fillColor=none;collapsible=0;dropTarget=0;points=[[0,0.5],[1,0.5]];portConstraint=eastwest;top=0;left=0;right=0;bottom=0;" vertex="1" parent="GG5JeXf6VGito8hK17r1-14">
          <mxGeometry y="60" width="180" height="30" as="geometry" />
        </mxCell>
        <mxCell id="GG5JeXf6VGito8hK17r1-120" value="FK" style="shape=partialRectangle;connectable=0;fillColor=none;top=0;left=0;bottom=0;right=0;editable=1;overflow=hidden;whiteSpace=wrap;html=1;" vertex="1" parent="GG5JeXf6VGito8hK17r1-119">
          <mxGeometry width="30" height="30" as="geometry">
            <mxRectangle width="30" height="30" as="alternateBounds" />
          </mxGeometry>
        </mxCell>
        <mxCell id="GG5JeXf6VGito8hK17r1-121" value="parent" style="shape=partialRectangle;connectable=0;fillColor=none;top=0;left=0;bottom=0;right=0;align=left;spacingLeft=6;overflow=hidden;whiteSpace=wrap;html=1;" vertex="1" parent="GG5JeXf6VGito8hK17r1-119">
          <mxGeometry x="30" width="150" height="30" as="geometry">
            <mxRectangle width="150" height="30" as="alternateBounds" />
          </mxGeometry>
        </mxCell>
        <mxCell id="GG5JeXf6VGito8hK17r1-18" value="" style="shape=tableRow;horizontal=0;startSize=0;swimlaneHead=0;swimlaneBody=0;fillColor=none;collapsible=0;dropTarget=0;points=[[0,0.5],[1,0.5]];portConstraint=eastwest;top=0;left=0;right=0;bottom=0;" vertex="1" parent="GG5JeXf6VGito8hK17r1-14">
          <mxGeometry y="90" width="180" height="30" as="geometry" />
        </mxCell>
        <mxCell id="GG5JeXf6VGito8hK17r1-19" value="" style="shape=partialRectangle;connectable=0;fillColor=none;top=0;left=0;bottom=0;right=0;editable=1;overflow=hidden;whiteSpace=wrap;html=1;" vertex="1" parent="GG5JeXf6VGito8hK17r1-18">
          <mxGeometry width="30" height="30" as="geometry">
            <mxRectangle width="30" height="30" as="alternateBounds" />
          </mxGeometry>
        </mxCell>
        <mxCell id="GG5JeXf6VGito8hK17r1-20" value="title" style="shape=partialRectangle;connectable=0;fillColor=none;top=0;left=0;bottom=0;right=0;align=left;spacingLeft=6;overflow=hidden;whiteSpace=wrap;html=1;" vertex="1" parent="GG5JeXf6VGito8hK17r1-18">
          <mxGeometry x="30" width="150" height="30" as="geometry">
            <mxRectangle width="150" height="30" as="alternateBounds" />
          </mxGeometry>
        </mxCell>
        <mxCell id="GG5JeXf6VGito8hK17r1-21" value="" style="shape=tableRow;horizontal=0;startSize=0;swimlaneHead=0;swimlaneBody=0;fillColor=none;collapsible=0;dropTarget=0;points=[[0,0.5],[1,0.5]];portConstraint=eastwest;top=0;left=0;right=0;bottom=0;" vertex="1" parent="GG5JeXf6VGito8hK17r1-14">
          <mxGeometry y="120" width="180" height="30" as="geometry" />
        </mxCell>
        <mxCell id="GG5JeXf6VGito8hK17r1-22" value="" style="shape=partialRectangle;connectable=0;fillColor=none;top=0;left=0;bottom=0;right=0;editable=1;overflow=hidden;whiteSpace=wrap;html=1;" vertex="1" parent="GG5JeXf6VGito8hK17r1-21">
          <mxGeometry width="30" height="30" as="geometry">
            <mxRectangle width="30" height="30" as="alternateBounds" />
          </mxGeometry>
        </mxCell>
        <mxCell id="GG5JeXf6VGito8hK17r1-23" value="start_date" style="shape=partialRectangle;connectable=0;fillColor=none;top=0;left=0;bottom=0;right=0;align=left;spacingLeft=6;overflow=hidden;whiteSpace=wrap;html=1;" vertex="1" parent="GG5JeXf6VGito8hK17r1-21">
          <mxGeometry x="30" width="150" height="30" as="geometry">
            <mxRectangle width="150" height="30" as="alternateBounds" />
          </mxGeometry>
        </mxCell>
        <mxCell id="GG5JeXf6VGito8hK17r1-24" value="" style="shape=tableRow;horizontal=0;startSize=0;swimlaneHead=0;swimlaneBody=0;fillColor=none;collapsible=0;dropTarget=0;points=[[0,0.5],[1,0.5]];portConstraint=eastwest;top=0;left=0;right=0;bottom=0;" vertex="1" parent="GG5JeXf6VGito8hK17r1-14">
          <mxGeometry y="150" width="180" height="30" as="geometry" />
        </mxCell>
        <mxCell id="GG5JeXf6VGito8hK17r1-25" value="" style="shape=partialRectangle;connectable=0;fillColor=none;top=0;left=0;bottom=0;right=0;editable=1;overflow=hidden;whiteSpace=wrap;html=1;" vertex="1" parent="GG5JeXf6VGito8hK17r1-24">
          <mxGeometry width="30" height="30" as="geometry">
            <mxRectangle width="30" height="30" as="alternateBounds" />
          </mxGeometry>
        </mxCell>
        <mxCell id="GG5JeXf6VGito8hK17r1-26" value="end_date" style="shape=partialRectangle;connectable=0;fillColor=none;top=0;left=0;bottom=0;right=0;align=left;spacingLeft=6;overflow=hidden;whiteSpace=wrap;html=1;" vertex="1" parent="GG5JeXf6VGito8hK17r1-24">
          <mxGeometry x="30" width="150" height="30" as="geometry">
            <mxRectangle width="150" height="30" as="alternateBounds" />
          </mxGeometry>
        </mxCell>
        <mxCell id="GG5JeXf6VGito8hK17r1-39" value="" style="shape=tableRow;horizontal=0;startSize=0;swimlaneHead=0;swimlaneBody=0;fillColor=none;collapsible=0;dropTarget=0;points=[[0,0.5],[1,0.5]];portConstraint=eastwest;top=0;left=0;right=0;bottom=0;" vertex="1" parent="GG5JeXf6VGito8hK17r1-14">
          <mxGeometry y="180" width="180" height="30" as="geometry" />
        </mxCell>
        <mxCell id="GG5JeXf6VGito8hK17r1-40" value="" style="shape=partialRectangle;connectable=0;fillColor=none;top=0;left=0;bottom=0;right=0;editable=1;overflow=hidden;whiteSpace=wrap;html=1;" vertex="1" parent="GG5JeXf6VGito8hK17r1-39">
          <mxGeometry width="30" height="30" as="geometry">
            <mxRectangle width="30" height="30" as="alternateBounds" />
          </mxGeometry>
        </mxCell>
        <mxCell id="GG5JeXf6VGito8hK17r1-41" value="priority" style="shape=partialRectangle;connectable=0;fillColor=none;top=0;left=0;bottom=0;right=0;align=left;spacingLeft=6;overflow=hidden;whiteSpace=wrap;html=1;" vertex="1" parent="GG5JeXf6VGito8hK17r1-39">
          <mxGeometry x="30" width="150" height="30" as="geometry">
            <mxRectangle width="150" height="30" as="alternateBounds" />
          </mxGeometry>
        </mxCell>
        <mxCell id="GG5JeXf6VGito8hK17r1-33" value="" style="shape=tableRow;horizontal=0;startSize=0;swimlaneHead=0;swimlaneBody=0;fillColor=none;collapsible=0;dropTarget=0;points=[[0,0.5],[1,0.5]];portConstraint=eastwest;top=0;left=0;right=0;bottom=0;" vertex="1" parent="GG5JeXf6VGito8hK17r1-14">
          <mxGeometry y="210" width="180" height="30" as="geometry" />
        </mxCell>
        <mxCell id="GG5JeXf6VGito8hK17r1-34" value="" style="shape=partialRectangle;connectable=0;fillColor=none;top=0;left=0;bottom=0;right=0;editable=1;overflow=hidden;whiteSpace=wrap;html=1;" vertex="1" parent="GG5JeXf6VGito8hK17r1-33">
          <mxGeometry width="30" height="30" as="geometry">
            <mxRectangle width="30" height="30" as="alternateBounds" />
          </mxGeometry>
        </mxCell>
        <mxCell id="GG5JeXf6VGito8hK17r1-35" value="description" style="shape=partialRectangle;connectable=0;fillColor=none;top=0;left=0;bottom=0;right=0;align=left;spacingLeft=6;overflow=hidden;whiteSpace=wrap;html=1;" vertex="1" parent="GG5JeXf6VGito8hK17r1-33">
          <mxGeometry x="30" width="150" height="30" as="geometry">
            <mxRectangle width="150" height="30" as="alternateBounds" />
          </mxGeometry>
        </mxCell>
        <mxCell id="GG5JeXf6VGito8hK17r1-101" value="" style="shape=tableRow;horizontal=0;startSize=0;swimlaneHead=0;swimlaneBody=0;fillColor=none;collapsible=0;dropTarget=0;points=[[0,0.5],[1,0.5]];portConstraint=eastwest;top=0;left=0;right=0;bottom=0;" vertex="1" parent="GG5JeXf6VGito8hK17r1-14">
          <mxGeometry y="240" width="180" height="30" as="geometry" />
        </mxCell>
        <mxCell id="GG5JeXf6VGito8hK17r1-102" value="" style="shape=partialRectangle;connectable=0;fillColor=none;top=0;left=0;bottom=0;right=0;editable=1;overflow=hidden;whiteSpace=wrap;html=1;" vertex="1" parent="GG5JeXf6VGito8hK17r1-101">
          <mxGeometry width="30" height="30" as="geometry">
            <mxRectangle width="30" height="30" as="alternateBounds" />
          </mxGeometry>
        </mxCell>
        <mxCell id="GG5JeXf6VGito8hK17r1-103" value="closed" style="shape=partialRectangle;connectable=0;fillColor=none;top=0;left=0;bottom=0;right=0;align=left;spacingLeft=6;overflow=hidden;whiteSpace=wrap;html=1;" vertex="1" parent="GG5JeXf6VGito8hK17r1-101">
          <mxGeometry x="30" width="150" height="30" as="geometry">
            <mxRectangle width="150" height="30" as="alternateBounds" />
          </mxGeometry>
        </mxCell>
        <mxCell id="GG5JeXf6VGito8hK17r1-27" value="" style="shape=tableRow;horizontal=0;startSize=0;swimlaneHead=0;swimlaneBody=0;fillColor=none;collapsible=0;dropTarget=0;points=[[0,0.5],[1,0.5]];portConstraint=eastwest;top=0;left=0;right=0;bottom=0;" vertex="1" parent="1">
          <mxGeometry x="520" y="590" width="180" height="30" as="geometry" />
        </mxCell>
        <mxCell id="GG5JeXf6VGito8hK17r1-28" value="" style="shape=partialRectangle;connectable=0;fillColor=none;top=0;left=0;bottom=0;right=0;editable=1;overflow=hidden;whiteSpace=wrap;html=1;" vertex="1" parent="GG5JeXf6VGito8hK17r1-27">
          <mxGeometry width="30" height="30" as="geometry">
            <mxRectangle width="30" height="30" as="alternateBounds" />
          </mxGeometry>
        </mxCell>
        <mxCell id="GG5JeXf6VGito8hK17r1-64" value="contacts" style="shape=table;startSize=30;container=1;collapsible=1;childLayout=tableLayout;fixedRows=1;rowLines=0;fontStyle=1;align=center;resizeLast=1;html=1;" vertex="1" parent="1">
          <mxGeometry x="60" y="420" width="180" height="240" as="geometry" />
        </mxCell>
        <mxCell id="GG5JeXf6VGito8hK17r1-65" value="" style="shape=tableRow;horizontal=0;startSize=0;swimlaneHead=0;swimlaneBody=0;fillColor=none;collapsible=0;dropTarget=0;points=[[0,0.5],[1,0.5]];portConstraint=eastwest;top=0;left=0;right=0;bottom=1;" vertex="1" parent="GG5JeXf6VGito8hK17r1-64">
          <mxGeometry y="30" width="180" height="30" as="geometry" />
        </mxCell>
        <mxCell id="GG5JeXf6VGito8hK17r1-66" value="PK" style="shape=partialRectangle;connectable=0;fillColor=none;top=0;left=0;bottom=0;right=0;fontStyle=1;overflow=hidden;whiteSpace=wrap;html=1;" vertex="1" parent="GG5JeXf6VGito8hK17r1-65">
          <mxGeometry width="30" height="30" as="geometry">
            <mxRectangle width="30" height="30" as="alternateBounds" />
          </mxGeometry>
        </mxCell>
        <mxCell id="GG5JeXf6VGito8hK17r1-67" value="UniqueID" style="shape=partialRectangle;connectable=0;fillColor=none;top=0;left=0;bottom=0;right=0;align=left;spacingLeft=6;fontStyle=5;overflow=hidden;whiteSpace=wrap;html=1;" vertex="1" parent="GG5JeXf6VGito8hK17r1-65">
          <mxGeometry x="30" width="150" height="30" as="geometry">
            <mxRectangle width="150" height="30" as="alternateBounds" />
          </mxGeometry>
        </mxCell>
        <mxCell id="GG5JeXf6VGito8hK17r1-68" value="" style="shape=tableRow;horizontal=0;startSize=0;swimlaneHead=0;swimlaneBody=0;fillColor=none;collapsible=0;dropTarget=0;points=[[0,0.5],[1,0.5]];portConstraint=eastwest;top=0;left=0;right=0;bottom=0;" vertex="1" parent="GG5JeXf6VGito8hK17r1-64">
          <mxGeometry y="60" width="180" height="30" as="geometry" />
        </mxCell>
        <mxCell id="GG5JeXf6VGito8hK17r1-69" value="" style="shape=partialRectangle;connectable=0;fillColor=none;top=0;left=0;bottom=0;right=0;editable=1;overflow=hidden;whiteSpace=wrap;html=1;" vertex="1" parent="GG5JeXf6VGito8hK17r1-68">
          <mxGeometry width="30" height="30" as="geometry">
            <mxRectangle width="30" height="30" as="alternateBounds" />
          </mxGeometry>
        </mxCell>
        <mxCell id="GG5JeXf6VGito8hK17r1-70" value="first_name&lt;span style=&quot;white-space: pre;&quot;&gt;&#x9;&lt;/span&gt;" style="shape=partialRectangle;connectable=0;fillColor=none;top=0;left=0;bottom=0;right=0;align=left;spacingLeft=6;overflow=hidden;whiteSpace=wrap;html=1;" vertex="1" parent="GG5JeXf6VGito8hK17r1-68">
          <mxGeometry x="30" width="150" height="30" as="geometry">
            <mxRectangle width="150" height="30" as="alternateBounds" />
          </mxGeometry>
        </mxCell>
        <mxCell id="GG5JeXf6VGito8hK17r1-71" value="" style="shape=tableRow;horizontal=0;startSize=0;swimlaneHead=0;swimlaneBody=0;fillColor=none;collapsible=0;dropTarget=0;points=[[0,0.5],[1,0.5]];portConstraint=eastwest;top=0;left=0;right=0;bottom=0;" vertex="1" parent="GG5JeXf6VGito8hK17r1-64">
          <mxGeometry y="90" width="180" height="30" as="geometry" />
        </mxCell>
        <mxCell id="GG5JeXf6VGito8hK17r1-72" value="" style="shape=partialRectangle;connectable=0;fillColor=none;top=0;left=0;bottom=0;right=0;editable=1;overflow=hidden;whiteSpace=wrap;html=1;" vertex="1" parent="GG5JeXf6VGito8hK17r1-71">
          <mxGeometry width="30" height="30" as="geometry">
            <mxRectangle width="30" height="30" as="alternateBounds" />
          </mxGeometry>
        </mxCell>
        <mxCell id="GG5JeXf6VGito8hK17r1-73" value="last_name" style="shape=partialRectangle;connectable=0;fillColor=none;top=0;left=0;bottom=0;right=0;align=left;spacingLeft=6;overflow=hidden;whiteSpace=wrap;html=1;" vertex="1" parent="GG5JeXf6VGito8hK17r1-71">
          <mxGeometry x="30" width="150" height="30" as="geometry">
            <mxRectangle width="150" height="30" as="alternateBounds" />
          </mxGeometry>
        </mxCell>
        <mxCell id="GG5JeXf6VGito8hK17r1-74" value="" style="shape=tableRow;horizontal=0;startSize=0;swimlaneHead=0;swimlaneBody=0;fillColor=none;collapsible=0;dropTarget=0;points=[[0,0.5],[1,0.5]];portConstraint=eastwest;top=0;left=0;right=0;bottom=0;" vertex="1" parent="GG5JeXf6VGito8hK17r1-64">
          <mxGeometry y="120" width="180" height="30" as="geometry" />
        </mxCell>
        <mxCell id="GG5JeXf6VGito8hK17r1-75" value="" style="shape=partialRectangle;connectable=0;fillColor=none;top=0;left=0;bottom=0;right=0;editable=1;overflow=hidden;whiteSpace=wrap;html=1;" vertex="1" parent="GG5JeXf6VGito8hK17r1-74">
          <mxGeometry width="30" height="30" as="geometry">
            <mxRectangle width="30" height="30" as="alternateBounds" />
          </mxGeometry>
        </mxCell>
        <mxCell id="GG5JeXf6VGito8hK17r1-76" value="address" style="shape=partialRectangle;connectable=0;fillColor=none;top=0;left=0;bottom=0;right=0;align=left;spacingLeft=6;overflow=hidden;whiteSpace=wrap;html=1;" vertex="1" parent="GG5JeXf6VGito8hK17r1-74">
          <mxGeometry x="30" width="150" height="30" as="geometry">
            <mxRectangle width="150" height="30" as="alternateBounds" />
          </mxGeometry>
        </mxCell>
        <mxCell id="GG5JeXf6VGito8hK17r1-77" value="" style="shape=tableRow;horizontal=0;startSize=0;swimlaneHead=0;swimlaneBody=0;fillColor=none;collapsible=0;dropTarget=0;points=[[0,0.5],[1,0.5]];portConstraint=eastwest;top=0;left=0;right=0;bottom=0;" vertex="1" parent="GG5JeXf6VGito8hK17r1-64">
          <mxGeometry y="150" width="180" height="30" as="geometry" />
        </mxCell>
        <mxCell id="GG5JeXf6VGito8hK17r1-78" value="" style="shape=partialRectangle;connectable=0;fillColor=none;top=0;left=0;bottom=0;right=0;editable=1;overflow=hidden;whiteSpace=wrap;html=1;" vertex="1" parent="GG5JeXf6VGito8hK17r1-77">
          <mxGeometry width="30" height="30" as="geometry">
            <mxRectangle width="30" height="30" as="alternateBounds" />
          </mxGeometry>
        </mxCell>
        <mxCell id="GG5JeXf6VGito8hK17r1-79" value="phone" style="shape=partialRectangle;connectable=0;fillColor=none;top=0;left=0;bottom=0;right=0;align=left;spacingLeft=6;overflow=hidden;whiteSpace=wrap;html=1;" vertex="1" parent="GG5JeXf6VGito8hK17r1-77">
          <mxGeometry x="30" width="150" height="30" as="geometry">
            <mxRectangle width="150" height="30" as="alternateBounds" />
          </mxGeometry>
        </mxCell>
        <mxCell id="GG5JeXf6VGito8hK17r1-80" value="" style="shape=tableRow;horizontal=0;startSize=0;swimlaneHead=0;swimlaneBody=0;fillColor=none;collapsible=0;dropTarget=0;points=[[0,0.5],[1,0.5]];portConstraint=eastwest;top=0;left=0;right=0;bottom=0;" vertex="1" parent="GG5JeXf6VGito8hK17r1-64">
          <mxGeometry y="180" width="180" height="30" as="geometry" />
        </mxCell>
        <mxCell id="GG5JeXf6VGito8hK17r1-81" value="" style="shape=partialRectangle;connectable=0;fillColor=none;top=0;left=0;bottom=0;right=0;editable=1;overflow=hidden;whiteSpace=wrap;html=1;" vertex="1" parent="GG5JeXf6VGito8hK17r1-80">
          <mxGeometry width="30" height="30" as="geometry">
            <mxRectangle width="30" height="30" as="alternateBounds" />
          </mxGeometry>
        </mxCell>
        <mxCell id="GG5JeXf6VGito8hK17r1-82" value="email" style="shape=partialRectangle;connectable=0;fillColor=none;top=0;left=0;bottom=0;right=0;align=left;spacingLeft=6;overflow=hidden;whiteSpace=wrap;html=1;" vertex="1" parent="GG5JeXf6VGito8hK17r1-80">
          <mxGeometry x="30" width="150" height="30" as="geometry">
            <mxRectangle width="150" height="30" as="alternateBounds" />
          </mxGeometry>
        </mxCell>
        <mxCell id="GG5JeXf6VGito8hK17r1-83" value="" style="shape=tableRow;horizontal=0;startSize=0;swimlaneHead=0;swimlaneBody=0;fillColor=none;collapsible=0;dropTarget=0;points=[[0,0.5],[1,0.5]];portConstraint=eastwest;top=0;left=0;right=0;bottom=0;" vertex="1" parent="GG5JeXf6VGito8hK17r1-64">
          <mxGeometry y="210" width="180" height="30" as="geometry" />
        </mxCell>
        <mxCell id="GG5JeXf6VGito8hK17r1-84" value="" style="shape=partialRectangle;connectable=0;fillColor=none;top=0;left=0;bottom=0;right=0;editable=1;overflow=hidden;whiteSpace=wrap;html=1;" vertex="1" parent="GG5JeXf6VGito8hK17r1-83">
          <mxGeometry width="30" height="30" as="geometry">
            <mxRectangle width="30" height="30" as="alternateBounds" />
          </mxGeometry>
        </mxCell>
        <mxCell id="GG5JeXf6VGito8hK17r1-85" value="picture" style="shape=partialRectangle;connectable=0;fillColor=none;top=0;left=0;bottom=0;right=0;align=left;spacingLeft=6;overflow=hidden;whiteSpace=wrap;html=1;" vertex="1" parent="GG5JeXf6VGito8hK17r1-83">
          <mxGeometry x="30" width="150" height="30" as="geometry">
            <mxRectangle width="150" height="30" as="alternateBounds" />
          </mxGeometry>
        </mxCell>
        <mxCell id="GG5JeXf6VGito8hK17r1-104" value="" style="edgeStyle=entityRelationEdgeStyle;fontSize=12;html=1;endArrow=ERmandOne;startArrow=ERmandOne;rounded=0;" edge="1" parent="1" source="GG5JeXf6VGito8hK17r1-65" target="GG5JeXf6VGito8hK17r1-5">
          <mxGeometry width="100" height="100" relative="1" as="geometry">
            <mxPoint x="370" y="730" as="sourcePoint" />
            <mxPoint x="470" y="630" as="targetPoint" />
          </mxGeometry>
        </mxCell>
        <mxCell id="GG5JeXf6VGito8hK17r1-105" value="" style="edgeStyle=entityRelationEdgeStyle;fontSize=12;html=1;endArrow=ERmandOne;startArrow=ERmandOne;rounded=0;" edge="1" parent="1" source="GG5JeXf6VGito8hK17r1-8" target="GG5JeXf6VGito8hK17r1-15">
          <mxGeometry width="100" height="100" relative="1" as="geometry">
            <mxPoint x="250" y="475" as="sourcePoint" />
            <mxPoint x="334" y="505" as="targetPoint" />
          </mxGeometry>
        </mxCell>
        <mxCell id="GG5JeXf6VGito8hK17r1-106" value="lists" style="shape=table;startSize=30;container=1;collapsible=1;childLayout=tableLayout;fixedRows=1;rowLines=0;fontStyle=1;align=center;resizeLast=1;html=1;" vertex="1" parent="1">
          <mxGeometry x="590" y="750" width="180" height="120" as="geometry" />
        </mxCell>
        <mxCell id="GG5JeXf6VGito8hK17r1-107" value="" style="shape=tableRow;horizontal=0;startSize=0;swimlaneHead=0;swimlaneBody=0;fillColor=none;collapsible=0;dropTarget=0;points=[[0,0.5],[1,0.5]];portConstraint=eastwest;top=0;left=0;right=0;bottom=1;" vertex="1" parent="GG5JeXf6VGito8hK17r1-106">
          <mxGeometry y="30" width="180" height="30" as="geometry" />
        </mxCell>
        <mxCell id="GG5JeXf6VGito8hK17r1-108" value="PK" style="shape=partialRectangle;connectable=0;fillColor=none;top=0;left=0;bottom=0;right=0;fontStyle=1;overflow=hidden;whiteSpace=wrap;html=1;" vertex="1" parent="GG5JeXf6VGito8hK17r1-107">
          <mxGeometry width="30" height="30" as="geometry">
            <mxRectangle width="30" height="30" as="alternateBounds" />
          </mxGeometry>
        </mxCell>
        <mxCell id="GG5JeXf6VGito8hK17r1-109" value="UniqueID" style="shape=partialRectangle;connectable=0;fillColor=none;top=0;left=0;bottom=0;right=0;align=left;spacingLeft=6;fontStyle=5;overflow=hidden;whiteSpace=wrap;html=1;" vertex="1" parent="GG5JeXf6VGito8hK17r1-107">
          <mxGeometry x="30" width="150" height="30" as="geometry">
            <mxRectangle width="150" height="30" as="alternateBounds" />
          </mxGeometry>
        </mxCell>
        <mxCell id="GG5JeXf6VGito8hK17r1-110" value="" style="shape=tableRow;horizontal=0;startSize=0;swimlaneHead=0;swimlaneBody=0;fillColor=none;collapsible=0;dropTarget=0;points=[[0,0.5],[1,0.5]];portConstraint=eastwest;top=0;left=0;right=0;bottom=0;" vertex="1" parent="GG5JeXf6VGito8hK17r1-106">
          <mxGeometry y="60" width="180" height="30" as="geometry" />
        </mxCell>
        <mxCell id="GG5JeXf6VGito8hK17r1-111" value="FK" style="shape=partialRectangle;connectable=0;fillColor=none;top=0;left=0;bottom=0;right=0;editable=1;overflow=hidden;whiteSpace=wrap;html=1;" vertex="1" parent="GG5JeXf6VGito8hK17r1-110">
          <mxGeometry width="30" height="30" as="geometry">
            <mxRectangle width="30" height="30" as="alternateBounds" />
          </mxGeometry>
        </mxCell>
        <mxCell id="GG5JeXf6VGito8hK17r1-112" value="parent_id" style="shape=partialRectangle;connectable=0;fillColor=none;top=0;left=0;bottom=0;right=0;align=left;spacingLeft=6;overflow=hidden;whiteSpace=wrap;html=1;" vertex="1" parent="GG5JeXf6VGito8hK17r1-110">
          <mxGeometry x="30" width="150" height="30" as="geometry">
            <mxRectangle width="150" height="30" as="alternateBounds" />
          </mxGeometry>
        </mxCell>
        <mxCell id="GG5JeXf6VGito8hK17r1-113" value="" style="shape=tableRow;horizontal=0;startSize=0;swimlaneHead=0;swimlaneBody=0;fillColor=none;collapsible=0;dropTarget=0;points=[[0,0.5],[1,0.5]];portConstraint=eastwest;top=0;left=0;right=0;bottom=0;" vertex="1" parent="GG5JeXf6VGito8hK17r1-106">
          <mxGeometry y="90" width="180" height="30" as="geometry" />
        </mxCell>
        <mxCell id="GG5JeXf6VGito8hK17r1-114" value="" style="shape=partialRectangle;connectable=0;fillColor=none;top=0;left=0;bottom=0;right=0;editable=1;overflow=hidden;whiteSpace=wrap;html=1;" vertex="1" parent="GG5JeXf6VGito8hK17r1-113">
          <mxGeometry width="30" height="30" as="geometry">
            <mxRectangle width="30" height="30" as="alternateBounds" />
          </mxGeometry>
        </mxCell>
        <mxCell id="GG5JeXf6VGito8hK17r1-115" value="title" style="shape=partialRectangle;connectable=0;fillColor=none;top=0;left=0;bottom=0;right=0;align=left;spacingLeft=6;overflow=hidden;whiteSpace=wrap;html=1;" vertex="1" parent="GG5JeXf6VGito8hK17r1-113">
          <mxGeometry x="30" width="150" height="30" as="geometry">
            <mxRectangle width="150" height="30" as="alternateBounds" />
          </mxGeometry>
        </mxCell>
        <mxCell id="GG5JeXf6VGito8hK17r1-123" value="" style="edgeStyle=orthogonalEdgeStyle;fontSize=12;html=1;endArrow=ERoneToMany;rounded=0;entryX=0;entryY=0.5;entryDx=0;entryDy=0;" edge="1" parent="GG5JeXf6VGito8hK17r1-106" source="GG5JeXf6VGito8hK17r1-110" target="GG5JeXf6VGito8hK17r1-107">
          <mxGeometry width="100" height="100" relative="1" as="geometry">
            <mxPoint x="-185" y="100" as="sourcePoint" />
            <mxPoint x="-185" y="50" as="targetPoint" />
          </mxGeometry>
        </mxCell>
        <mxCell id="GG5JeXf6VGito8hK17r1-122" value="" style="edgeStyle=entityRelationEdgeStyle;fontSize=12;html=1;endArrow=ERoneToMany;rounded=0;" edge="1" parent="1" source="GG5JeXf6VGito8hK17r1-119" target="GG5JeXf6VGito8hK17r1-107">
          <mxGeometry width="100" height="100" relative="1" as="geometry">
            <mxPoint x="270" y="820" as="sourcePoint" />
            <mxPoint x="370" y="720" as="targetPoint" />
          </mxGeometry>
        </mxCell>
      </root>
    </mxGraphModel>
  </diagram>
  <diagram id="PZvC7bh4CrfytTUESbwW" name="Seite-2">
    <mxGraphModel dx="1050" dy="617" grid="1" gridSize="10" guides="1" tooltips="1" connect="1" arrows="1" fold="1" page="1" pageScale="1" pageWidth="827" pageHeight="1169" math="0" shadow="0">
      <root>
        <mxCell id="0" />
        <mxCell id="1" parent="0" />
        <mxCell id="MJjTVCbg14JLUQll-97Z-1" value="&lt;font style=&quot;font-size: 16px;&quot;&gt;Chefarzt&lt;/font&gt;" style="whiteSpace=wrap;html=1;align=center;" vertex="1" parent="1">
          <mxGeometry x="79" y="200" width="100" height="40" as="geometry" />
        </mxCell>
        <mxCell id="MJjTVCbg14JLUQll-97Z-2" value="&lt;b&gt;arzt_id&lt;/b&gt;" style="whiteSpace=wrap;html=1;align=center;" vertex="1" parent="1">
          <mxGeometry x="179" y="200" width="100" height="40" as="geometry" />
        </mxCell>
        <mxCell id="MJjTVCbg14JLUQll-97Z-3" value="&lt;i&gt;station_id&lt;/i&gt;" style="whiteSpace=wrap;html=1;align=center;" vertex="1" parent="1">
          <mxGeometry x="279" y="200" width="100" height="40" as="geometry" />
        </mxCell>
        <mxCell id="MJjTVCbg14JLUQll-97Z-4" value="&lt;font style=&quot;font-size: 16px;&quot;&gt;Station&lt;/font&gt;" style="whiteSpace=wrap;html=1;align=center;" vertex="1" parent="1">
          <mxGeometry x="79" y="280" width="100" height="40" as="geometry" />
        </mxCell>
        <mxCell id="MJjTVCbg14JLUQll-97Z-5" value="&lt;font style=&quot;font-size: 16px;&quot;&gt;Zimmer&lt;/font&gt;" style="whiteSpace=wrap;html=1;align=center;" vertex="1" parent="1">
          <mxGeometry x="79" y="360" width="100" height="40" as="geometry" />
        </mxCell>
        <mxCell id="MJjTVCbg14JLUQll-97Z-6" value="&lt;font style=&quot;font-size: 16px;&quot;&gt;Behandlung&lt;/font&gt;" style="whiteSpace=wrap;html=1;align=center;" vertex="1" parent="1">
          <mxGeometry x="79" y="440" width="100" height="40" as="geometry" />
        </mxCell>
        <mxCell id="MJjTVCbg14JLUQll-97Z-7" value="&lt;font style=&quot;font-size: 16px;&quot;&gt;Patient&lt;/font&gt;" style="whiteSpace=wrap;html=1;align=center;" vertex="1" parent="1">
          <mxGeometry x="80" y="520" width="100" height="40" as="geometry" />
        </mxCell>
        <mxCell id="MJjTVCbg14JLUQll-97Z-8" value="&lt;font style=&quot;font-size: 16px;&quot;&gt;Kasse&lt;/font&gt;" style="whiteSpace=wrap;html=1;align=center;" vertex="1" parent="1">
          <mxGeometry x="80" y="600" width="100" height="40" as="geometry" />
        </mxCell>
        <mxCell id="MJjTVCbg14JLUQll-97Z-9" value="&lt;font style=&quot;font-size: 16px;&quot;&gt;Partner&lt;/font&gt;" style="whiteSpace=wrap;html=1;align=center;" vertex="1" parent="1">
          <mxGeometry x="80" y="680" width="100" height="40" as="geometry" />
        </mxCell>
        <mxCell id="MJjTVCbg14JLUQll-97Z-10" value="&lt;b&gt;station_id&lt;/b&gt;" style="whiteSpace=wrap;html=1;align=center;" vertex="1" parent="1">
          <mxGeometry x="179" y="280" width="100" height="40" as="geometry" />
        </mxCell>
        <mxCell id="MJjTVCbg14JLUQll-97Z-12" value="stockwerk" style="whiteSpace=wrap;html=1;align=center;" vertex="1" parent="1">
          <mxGeometry x="279" y="280" width="100" height="40" as="geometry" />
        </mxCell>
        <mxCell id="MJjTVCbg14JLUQll-97Z-13" value="&lt;b&gt;zimmer_id&lt;/b&gt;" style="whiteSpace=wrap;html=1;align=center;" vertex="1" parent="1">
          <mxGeometry x="179" y="360" width="100" height="40" as="geometry" />
        </mxCell>
        <mxCell id="MJjTVCbg14JLUQll-97Z-14" value="&lt;i&gt;station_id&lt;/i&gt;" style="whiteSpace=wrap;html=1;align=center;" vertex="1" parent="1">
          <mxGeometry x="279" y="360" width="100" height="40" as="geometry" />
        </mxCell>
        <mxCell id="MJjTVCbg14JLUQll-97Z-15" value="bettenzahl" style="whiteSpace=wrap;html=1;align=center;" vertex="1" parent="1">
          <mxGeometry x="379" y="360" width="100" height="40" as="geometry" />
        </mxCell>
        <mxCell id="MJjTVCbg14JLUQll-97Z-16" value="austattung" style="whiteSpace=wrap;html=1;align=center;" vertex="1" parent="1">
          <mxGeometry x="479" y="360" width="100" height="40" as="geometry" />
        </mxCell>
        <mxCell id="MJjTVCbg14JLUQll-97Z-17" value="&lt;b&gt;behandlung_id&lt;/b&gt;" style="whiteSpace=wrap;html=1;align=center;" vertex="1" parent="1">
          <mxGeometry x="179" y="440" width="100" height="40" as="geometry" />
        </mxCell>
        <mxCell id="MJjTVCbg14JLUQll-97Z-18" value="&lt;i&gt;patient_id&lt;/i&gt;" style="whiteSpace=wrap;html=1;align=center;" vertex="1" parent="1">
          <mxGeometry x="279" y="440" width="100" height="40" as="geometry" />
        </mxCell>
        <mxCell id="MJjTVCbg14JLUQll-97Z-19" value="&lt;i&gt;krankheit_id&lt;/i&gt;" style="whiteSpace=wrap;html=1;align=center;" vertex="1" parent="1">
          <mxGeometry x="379" y="440" width="100" height="40" as="geometry" />
        </mxCell>
        <mxCell id="MJjTVCbg14JLUQll-97Z-20" value="&lt;i&gt;zimmer_id&lt;/i&gt;" style="whiteSpace=wrap;html=1;align=center;" vertex="1" parent="1">
          <mxGeometry x="479" y="440" width="100" height="40" as="geometry" />
        </mxCell>
        <mxCell id="MJjTVCbg14JLUQll-97Z-21" value="zeit" style="whiteSpace=wrap;html=1;align=center;" vertex="1" parent="1">
          <mxGeometry x="579" y="440" width="100" height="40" as="geometry" />
        </mxCell>
        <mxCell id="MJjTVCbg14JLUQll-97Z-22" value="ergebnis" style="whiteSpace=wrap;html=1;align=center;" vertex="1" parent="1">
          <mxGeometry x="679" y="440" width="100" height="40" as="geometry" />
        </mxCell>
        <mxCell id="MJjTVCbg14JLUQll-97Z-23" value="&lt;b&gt;patient_id&lt;/b&gt;" style="whiteSpace=wrap;html=1;align=center;" vertex="1" parent="1">
          <mxGeometry x="180" y="520" width="100" height="40" as="geometry" />
        </mxCell>
        <mxCell id="MJjTVCbg14JLUQll-97Z-24" value="&lt;i&gt;kassen_id&lt;/i&gt;" style="whiteSpace=wrap;html=1;align=center;" vertex="1" parent="1">
          <mxGeometry x="280" y="520" width="100" height="40" as="geometry" />
        </mxCell>
        <mxCell id="MJjTVCbg14JLUQll-97Z-25" value="name" style="whiteSpace=wrap;html=1;align=center;" vertex="1" parent="1">
          <mxGeometry x="379" y="520" width="100" height="40" as="geometry" />
        </mxCell>
        <mxCell id="MJjTVCbg14JLUQll-97Z-26" value="&lt;b&gt;kassen_id&lt;/b&gt;" style="whiteSpace=wrap;html=1;align=center;" vertex="1" parent="1">
          <mxGeometry x="180" y="600" width="100" height="40" as="geometry" />
        </mxCell>
        <mxCell id="MJjTVCbg14JLUQll-97Z-27" value="&lt;i&gt;partner_id&lt;/i&gt;" style="whiteSpace=wrap;html=1;align=center;" vertex="1" parent="1">
          <mxGeometry x="280" y="600" width="100" height="40" as="geometry" />
        </mxCell>
        <mxCell id="MJjTVCbg14JLUQll-97Z-28" value="&lt;b&gt;partner_id&lt;/b&gt;" style="whiteSpace=wrap;html=1;align=center;" vertex="1" parent="1">
          <mxGeometry x="180" y="680" width="100" height="40" as="geometry" />
        </mxCell>
        <mxCell id="MJjTVCbg14JLUQll-97Z-29" value="telefon" style="whiteSpace=wrap;html=1;align=center;" vertex="1" parent="1">
          <mxGeometry x="280" y="680" width="100" height="40" as="geometry" />
        </mxCell>
        <mxCell id="MJjTVCbg14JLUQll-97Z-30" value="email" style="whiteSpace=wrap;html=1;align=center;" vertex="1" parent="1">
          <mxGeometry x="380" y="680" width="100" height="40" as="geometry" />
        </mxCell>
        <mxCell id="MJjTVCbg14JLUQll-97Z-31" value="&lt;font style=&quot;font-size: 16px;&quot;&gt;Krankheit&lt;/font&gt;" style="whiteSpace=wrap;html=1;align=center;" vertex="1" parent="1">
          <mxGeometry x="579" y="520" width="100" height="40" as="geometry" />
        </mxCell>
        <mxCell id="MJjTVCbg14JLUQll-97Z-32" value="&lt;b&gt;krankheit_id&lt;/b&gt;" style="whiteSpace=wrap;html=1;align=center;" vertex="1" parent="1">
          <mxGeometry x="679" y="520" width="100" height="40" as="geometry" />
        </mxCell>
        <mxCell id="MJjTVCbg14JLUQll-97Z-33" value="" style="edgeStyle=orthogonalEdgeStyle;fontSize=12;html=1;endArrow=ERmandOne;startArrow=ERmandOne;rounded=0;" edge="1" parent="1" source="MJjTVCbg14JLUQll-97Z-3" target="MJjTVCbg14JLUQll-97Z-10">
          <mxGeometry width="100" height="100" relative="1" as="geometry">
            <mxPoint x="450" y="330" as="sourcePoint" />
            <mxPoint x="550" y="230" as="targetPoint" />
          </mxGeometry>
        </mxCell>
        <mxCell id="MJjTVCbg14JLUQll-97Z-34" value="" style="edgeStyle=orthogonalEdgeStyle;fontSize=12;html=1;endArrow=ERmandOne;startArrow=ERoneToMany;rounded=0;startFill=0;" edge="1" parent="1" source="MJjTVCbg14JLUQll-97Z-14" target="MJjTVCbg14JLUQll-97Z-10">
          <mxGeometry width="100" height="100" relative="1" as="geometry">
            <mxPoint x="339" y="250" as="sourcePoint" />
            <mxPoint x="239" y="290" as="targetPoint" />
          </mxGeometry>
        </mxCell>
        <mxCell id="MJjTVCbg14JLUQll-97Z-35" value="" style="edgeStyle=orthogonalEdgeStyle;fontSize=12;html=1;endArrow=ERmandOne;startArrow=ERmandOne;rounded=0;strokeColor=default;" edge="1" parent="1" source="MJjTVCbg14JLUQll-97Z-28" target="MJjTVCbg14JLUQll-97Z-27">
          <mxGeometry width="100" height="100" relative="1" as="geometry">
            <mxPoint x="349" y="260" as="sourcePoint" />
            <mxPoint x="249" y="300" as="targetPoint" />
          </mxGeometry>
        </mxCell>
        <mxCell id="MJjTVCbg14JLUQll-97Z-36" value="" style="edgeStyle=orthogonalEdgeStyle;fontSize=12;html=1;endArrow=ERmany;startArrow=ERmandOne;rounded=0;endFill=0;" edge="1" parent="1" source="MJjTVCbg14JLUQll-97Z-26" target="MJjTVCbg14JLUQll-97Z-24">
          <mxGeometry width="100" height="100" relative="1" as="geometry">
            <mxPoint x="240" y="690" as="sourcePoint" />
            <mxPoint x="340" y="650" as="targetPoint" />
          </mxGeometry>
        </mxCell>
        <mxCell id="MJjTVCbg14JLUQll-97Z-37" value="" style="edgeStyle=orthogonalEdgeStyle;fontSize=12;html=1;endArrow=ERmany;startArrow=ERmandOne;rounded=0;endFill=0;" edge="1" parent="1" source="MJjTVCbg14JLUQll-97Z-13" target="MJjTVCbg14JLUQll-97Z-20">
          <mxGeometry width="100" height="100" relative="1" as="geometry">
            <mxPoint x="240" y="610" as="sourcePoint" />
            <mxPoint x="340" y="570" as="targetPoint" />
            <Array as="points">
              <mxPoint x="229" y="420" />
              <mxPoint x="529" y="420" />
            </Array>
          </mxGeometry>
        </mxCell>
        <mxCell id="MJjTVCbg14JLUQll-97Z-38" value="" style="edgeStyle=orthogonalEdgeStyle;fontSize=12;html=1;endArrow=ERmandOne;startArrow=ERmany;rounded=0;endFill=0;startFill=0;" edge="1" parent="1" source="MJjTVCbg14JLUQll-97Z-19" target="MJjTVCbg14JLUQll-97Z-32">
          <mxGeometry width="100" height="100" relative="1" as="geometry">
            <mxPoint x="239" y="410" as="sourcePoint" />
            <mxPoint x="539" y="450" as="targetPoint" />
            <Array as="points">
              <mxPoint x="429" y="500" />
              <mxPoint x="729" y="500" />
            </Array>
          </mxGeometry>
        </mxCell>
        <mxCell id="MJjTVCbg14JLUQll-97Z-39" value="" style="edgeStyle=orthogonalEdgeStyle;fontSize=12;html=1;endArrow=ERmandOne;startArrow=ERoneToMany;rounded=0;endFill=0;startFill=0;" edge="1" parent="1" source="MJjTVCbg14JLUQll-97Z-18" target="MJjTVCbg14JLUQll-97Z-23">
          <mxGeometry width="100" height="100" relative="1" as="geometry">
            <mxPoint x="439" y="490" as="sourcePoint" />
            <mxPoint x="739" y="530" as="targetPoint" />
          </mxGeometry>
        </mxCell>
      </root>
    </mxGraphModel>
  </diagram>
</mxfile>
